PathFileType	4	(X/Y/Z)	/Users/itak/Documents/Research/Walk-IL/dataset/trc/00554_00009.trc
DataRate	CameraRate	NumFrames	NumMarkers	Units	OrigDataRate	OrigDataStartFrame	OrigNumFrames
100.000000	100.000000	4	53	mm	100.000000	241	482
Frame#	Time	RPSI			LPSI			L3			STRN			T10			C7			CLAV			RBAK			LBAK			LSHO			LUPA			LAEL			LAOL			LWTS			LWPS			LFRA			LIFD			LHPS			LHTS			RSHO			RUPA			RAEL			RAOL			RWTS			RWPS			RFRA			RIFD			RHTS			RHPS			RBHD			LFHD			RFHD			LBHD			RHIP			RASI			LASI			LKNE			LTHI			LANK			LTIP			LTOE			LMT1			LMT5			LHEE			RKNE			RTHI			RANK			RTIP			RTOE			RMT1			RMT5			RHEE			LHIP			
		X1	Y1	Z1	X2	Y2	Z2	X3	Y3	Z3	X4	Y4	Z4	X5	Y5	Z5	X6	Y6	Z6	X7	Y7	Z7	X8	Y8	Z8	X9	Y9	Z9	X10	Y10	Z10	X11	Y11	Z11	X12	Y12	Z12	X13	Y13	Z13	X14	Y14	Z14	X15	Y15	Z15	X16	Y16	Z16	X17	Y17	Z17	X18	Y18	Z18	X19	Y19	Z19	X20	Y20	Z20	X21	Y21	Z21	X22	Y22	Z22	X23	Y23	Z23	X24	Y24	Z24	X25	Y25	Z25	X26	Y26	Z26	X27	Y27	Z27	X28	Y28	Z28	X29	Y29	Z29	X30	Y30	Z30	X31	Y31	Z31	X32	Y32	Z32	X33	Y33	Z33	X34	Y34	Z34	X35	Y35	Z35	X36	Y36	Z36	X37	Y37	Z37	X38	Y38	Z38	X39	Y39	Z39	X40	Y40	Z40	X41	Y41	Z41	X42	Y42	Z42	X43	Y43	Z43	X44	Y44	Z44	X45	Y45	Z45	X46	Y46	Z46	X47	Y47	Z47	X48	Y48	Z48	X49	Y49	Z49	X50	Y50	Z50	X51	Y51	Z51	X52	Y52	Z52	X53	Y53	Z53	

242	2.41	264.3402404785156	943.7080078125	408.1619567871094	288.5937805175781	955.5590209960938	276.6497192382812	299.4807434082031	1058.613037109375	348.4588317871094	571.5804443359375	1208.8525390625	385.02490234375	318.1318969726562	1182.253295898438	354.8489074707031	410.4259338378906	1445.416870117188	388.1592407226562	568.9395141601562	1321.356201171875	389.2365417480469	313.0575866699219	1330.704711914062	461.7062683105469	379.1698913574219	1401.286010742188	292.2982177734375	488.0956115722656	1415.756469726562	222.9466094970703	472.6552429199219	1299.293212890625	130.845458984375	481.4695739746094	1097.4873046875	87.20461273193359	387.0019836425781	1065.332275390625	112.0162048339844	653.6226806640625	953.7770385742188	199.8529357910156	653.3184814453125	899.1793212890625	132.1100006103516	538.519287109375	1033.579345703125	96.59414672851562	731.8837890625	833.9996337890625	250.2156219482422	695.0830688476562	862.8533325195312	156.8576812744141	719.0457153320312	909.93505859375	200.8259735107422	450.3086853027344	1396.214965820312	544.7764892578125	416.3763427734375	1334.981567382812	606.9961547851562	375.9840393066406	1056.609252929688	660.28564453125	319.2100524902344	1035.9677734375	638.940185546875	549.0051879882812	886.3247680664062	593.975341796875	515.2123413085938	846.487548828125	656.5636596679688	395.3064880371094	1003.99072265625	663.18115234375	613.2578735351562	745.1041259765625	576.9384765625	613.2754516601562	819.5047607421875	610.2254028320312	563.0158081054688	789.5968017578125	655.8665771484375	525.718505859375	1610.840087890625	468.6885070800781	685.41162109375	1597.83349609375	336.1630554199219	665.5054931640625	1597.291870117188	479.1724853515625	555.2894287109375	1608.682861328125	306.2052307128906	372.2344360351562	871.7774047851562	546.5591430664062	461.92626953125	905.5234375	502.6190795898438	508.2559814453125	909.7700805664062	231.5803833007812	600.3705444335938	462.6089477539062	270.107177734375	547.5821533203125	622.5173950195312	215.1302185058594	375.0211181640625	36.99059295654297	287.1084594726562	469.4593200683594	233.2193145751953	275.182861328125	583.5147094726562	39.1666259765625	354.2468872070312	508.2790222167969	43.50795364379883	387.544677734375	498.0464172363281	36.84157943725586	276.6322326660156	303.0791320800781	40.10196304321289	337.1238708496094	602.2256469726562	485.4524841308594	550.950927734375	462.6167602539062	742.5516357421875	560.5437622070312	250.6004333496094	170.1467590332031	510.3768920898438	538.2711791992188	360.9925231933594	535.1793823242188	441.4644775390625	65.79959106445312	500.1448364257812	390.9595031738281	88.20978546142578	449.761962890625	358.1074523925781	105.4664077758789	547.6509399414062	208.9732208251953	187.5926971435547	447.5574035644531	440.3060607910156	884.2732543945312	171.60498046875	
243	2.42	282.4435729980469	942.4876708984375	411.27197265625	305.7865905761719	955.5906982421875	279.7696228027344	316.0855407714844	1058.162353515625	351.8270874023438	588.4292602539062	1208.798461914062	388.9671325683594	335.0795288085938	1181.817260742188	357.6111755371094	427.1006469726562	1445.180419921875	390.668212890625	585.7137451171875	1321.354125976562	393.3818969726562	329.5265197753906	1330.378784179688	463.5278625488281	396.5158996582031	1401.087036132812	294.3065490722656	506.4432067871094	1415.625732421875	226.2223663330078	494.5265502929688	1298.73095703125	134.3973388671875	510.0890502929688	1097.324462890625	92.03372955322266	416.0089416503906	1062.175659179688	114.0563507080078	683.2235717773438	960.5077514648438	211.0185089111328	687.0968017578125	905.6763305664062	143.5596008300781	568.8425903320312	1035.569458007812	103.6428146362305	764.211181640625	843.8510131835938	264.5501098632812	729.3331298828125	870.9761962890625	169.8657989501953	750.0798950195312	919.0455932617188	214.3877868652344	466.1205444335938	1396.402954101562	547.9990234375	431.182373046875	1335.296142578125	609.81103515625	387.6663818359375	1057.298461914062	662.991455078125	330.9961853027344	1037.246704101562	640.7428588867188	559.5231323242188	884.84375	600.0718994140625	523.8731079101562	845.4589233398438	661.8990478515625	406.18212890625	1004.474548339844	666.3446655273438	622.3040161132812	742.9915771484375	584.5458374023438	622.6041870117188	817.2817993164062	617.8056030273438	570.9612426757812	788.0264282226562	662.3595581054688	542.8353271484375	1610.763549804688	472.2883605957031	702.7386474609375	1597.428588867188	339.9947509765625	682.4345703125	1596.622436523438	482.9346618652344	572.6967163085938	1608.822998046875	309.8508911132812	391.6099243164062	871.5552978515625	548.83056640625	481.0598449707031	905.4718627929688	504.3788757324219	525.2176513671875	910.4020385742188	232.6681823730469	607.1882934570312	458.9530029296875	270.2364807128906	558.5181884765625	620.2359008789062	215.9611663818359	375.0429077148438	37.34113311767578	287.4411315917969	472.2250366210938	231.9522857666016	275.3391418457031	583.597900390625	39.06295013427734	353.8693542480469	508.3634948730469	43.51848983764648	387.4490356445312	497.9979553222656	36.74280548095703	276.5111694335938	303.1164245605469	40.74416351318359	337.5631408691406	633.6152954101562	494.1726684570312	557.9032592773438	484.3161010742188	745.70703125	564.0681762695312	301.7288208007812	157.7304382324219	517.3767700195312	577.078369140625	365.619140625	542.9722900390625	499.2814331054688	66.93315887451172	511.365234375	447.954833984375	84.60124206542969	460.0124816894531	412.8032531738281	101.5719299316406	557.1043701171875	259.5731506347656	171.1877593994141	453.880859375	456.5444641113281	884.9576416015625	173.3203277587891	
244	2.43	300.8939819335938	941.372314453125	414.6398010253906	323.1866149902344	955.6576538085938	283.1436462402344	332.8476257324219	1057.778198242188	355.2710266113281	605.3388671875	1208.989501953125	392.8060302734375	352.0926208496094	1181.4873046875	360.487060546875	443.7341003417969	1445.088012695312	393.1163635253906	602.48583984375	1321.5927734375	397.4169921875	346.03515625	1330.193969726562	465.3635559082031	413.7896423339844	1401.007690429688	296.2582092285156	524.6876831054688	1415.761962890625	229.4523162841797	516.3489990234375	1298.529052734375	137.9335479736328	538.5055541992188	1097.774047851562	97.00672912597656	444.9926452636719	1059.642578125	116.2392044067383	712.225830078125	967.9410400390625	222.2733306884766	720.2821655273438	913.05224609375	155.2046203613281	598.82958984375	1038.271240234375	110.8457870483398	795.7776489257812	854.4319458007812	278.9846801757812	762.9242553710938	880.0025634765625	183.0103607177734	780.3573608398438	928.8990478515625	228.0712738037109	481.9714050292969	1396.806884765625	551.123779296875	446.0258483886719	1335.872192382812	612.5734252929688	399.0632019042969	1058.360229492188	665.6878662109375	342.4948425292969	1038.926025390625	642.5181274414062	569.5933837890625	883.5694580078125	606.4295043945312	531.9607543945312	844.7048950195312	667.417724609375	416.7505798339844	1005.359069824219	669.5252075195312	630.7119750976562	741.0410766601562	592.5033569335938	631.33740234375	815.2012939453125	625.736328125	578.3037719726562	786.6962890625	669.107177734375	559.8139038085938	1610.89111328125	475.8174438476562	720.007568359375	1597.253173828125	343.8606872558594	699.2626342773438	1596.189697265625	486.7424926757812	590.0711669921875	1609.184448242188	313.4402770996094	411.5125732421875	871.5694580078125	551.2105102539062	500.6062927246094	905.4713134765625	506.0970153808594	542.2991943359375	911.1131591796875	233.7134857177734	613.5367431640625	455.547119140625	270.5635375976562	569.3218994140625	618.1777954101562	217.039306640625	375.041259765625	37.73184967041016	287.8386840820312	474.7071838378906	230.8724060058594	275.5850830078125	583.639404296875	38.97124862670898	353.5328979492188	508.4506225585938	43.51790237426758	387.384521484375	497.9079284667969	36.67797088623047	276.4628295898438	303.1396789550781	41.46892166137695	338.03955078125	663.6235961914062	502.6875610351562	564.8623046875	506.0444030761719	749.0558471679688	567.5691528320312	354.2209167480469	144.5748901367188	524.0972290039062	615.1813354492188	369.9881591796875	550.6735229492188	557.7570190429688	68.41857147216797	522.01171875	505.9486389160156	81.32407379150391	469.7646484375	468.3676452636719	97.45594787597656	566.037841796875	311.8688049316406	154.0957794189453	459.9698486328125	472.8818664550781	885.7448120117188	175.1375122070312	
245	2.44	319.7258911132812	940.4003295898438	418.2242736816406	340.8431091308594	955.7694091796875	286.7411193847656	349.8603210449219	1057.46044921875	358.7178039550781	622.3406982421875	1209.431030273438	396.5644226074219	369.1913757324219	1181.2783203125	363.4553833007812	460.3542785644531	1445.142944335938	395.5191955566406	619.2869873046875	1322.075439453125	401.3565368652344	362.5969848632812	1330.140625	467.2125244140625	431.0366516113281	1401.0546875	298.1717224121094	542.8612060546875	1416.193237304688	232.6761016845703	538.1133422851562	1298.7099609375	141.4886627197266	566.6192626953125	1098.847778320312	102.0984039306641	473.8300476074219	1057.792114257812	118.5760040283203	740.5296630859375	976.0153198242188	233.5114593505859	752.7045288085938	921.2158203125	166.9484252929688	628.3531494140625	1041.66650390625	118.1443252563477	826.4502563476562	865.6527709960938	293.4060363769531	795.6787719726562	889.8258056640625	196.1812744140625	809.76513671875	939.3953247070312	241.7375640869141	497.8177795410156	1397.424194335938	554.1398315429688	460.9044494628906	1336.710327148438	615.285400390625	410.2249755859375	1059.802734375	668.3761596679688	353.7611389160156	1041.00146484375	644.2828369140625	579.2620239257812	882.5243530273438	612.985595703125	539.5698852539062	844.2530517578125	673.0735473632812	427.0777893066406	1006.640625	672.7056884765625	638.5264282226562	739.3110961914062	600.70556640625	639.5429077148438	813.3103637695312	633.9440307617188	585.1212768554688	785.6456298828125	676.0504150390625	576.6680908203125	1611.237060546875	479.2660217285156	737.2063598632812	1597.320556640625	347.7278442382812	716.00439453125	1596.0263671875	490.5608825683594	607.3955688476562	1609.75732421875	316.9609375	431.9410705566406	871.8243408203125	553.6653442382812	520.5557250976562	905.51416015625	507.7740478515625	559.5399169921875	911.889892578125	234.7509918212891	619.4368286132812	452.4362182617188	271.1353454589844	580.0184936523438	616.370361328125	218.386962890625	375.0227966308594	38.16173934936523	288.3062438964844	476.9219665527344	230.0160675048828	275.9392700195312	583.6449584960938	38.89660263061523	353.2513122558594	508.5513916015625	43.50851440429688	387.3524780273438	497.7772521972656	36.64448165893555	276.4957885742188	303.1598510742188	42.28762054443359	338.5805053710938	692.2113037109375	510.7646179199219	571.80126953125	527.7920532226562	752.5553588867188	571.0245361328125	408.0832214355469	131.0575866699219	530.6137084960938	652.46337890625	374.0558166503906	558.2844848632812	616.687744140625	70.34598541259766	532.1063842773438	564.7368774414062	78.56623840332031	479.037109375	524.7488403320312	93.30837249755859	574.5288696289062	365.8319396972656	136.7520141601562	465.8935241699219	489.3497619628906	886.6131591796875	177.0337524414062	
